<svg id="Capa_1" data-name="Capa 1" xmlns="http://www.w3.org/2000/svg" viewBox="0 0 512 512"><defs><style>.cls-1{fill:#fff;}.cls-2{fill:#0c93ea;}</style></defs><title>shopping cart</title><circle class="cls-1" cx="256" cy="256.53" r="254"/><path class="cls-2" d="M449.44,177.41a5.8,5.8,0,0,0-4-2.16L124,146.08a18.18,18.18,0,0,0-5.31-12.17L84.47,99.68a18.27,18.27,0,1,0-25.83,25.84l34.22,34.22a18.3,18.3,0,0,0,18.25,4.56l48.66,161.13a30.53,30.53,0,0,0,29.34,21.84c.76,0,1.53,0,2.3-.09l220.06-16.1A24.59,24.59,0,0,0,434,309.82l16.69-128A5.78,5.78,0,0,0,449.44,177.41Zm-339-25.9a6.63,6.63,0,0,1-9.37,0L66.87,117.28a6.62,6.62,0,1,1,9.36-9.36l34.23,34.22A6.64,6.64,0,0,1,110.46,151.51Zm143.31,18,2.62,42.59-54.42-2-8.59-46.09Zm-132.54-12,60.1,5.45L190,209.72l-53.64-1.95Zm35.38,117.17L140,219.55l52.27,1.9L202,273.68Zm33.95,60.88a19,19,0,0,1-19.64-13.51l-10.81-35.8,44-1,9.06,48.63Zm13.59-113.68,53,1.93,3,48.57-46.34,1Zm20.72,111.17-9-48,44.9-1,2.85,46.2Zm91.59-6.7-41.18,3-2.81-45.61,45.15-1Zm1.47-55.26-46.18,1-2.95-47.89,50.33,1.84Zm1.51-56.67-51.36-1.87-2.58-41.95,55,5Zm53,107.83-44.34,3.24,1.14-43,46.48-1Zm4.22-52.46-47.11,1.05,1.18-44.35L380,228.29ZM381,216.68l-49.89-1.82,1-38.21,51.71,4.7Zm41.46,91.64a12.9,12.9,0,0,1-11.8,11.15l-26.4,1.93,3.23-40.19,38.62-.86Zm5.17-39.65-39.2.87,3.28-40.82,40.94,1.49Zm6.53-50.06-41.51-1.51,2.79-34.7,42.94,3.9Z"/><path class="cls-2" d="M396.81,414V400h12.84a5.82,5.82,0,1,0,0-11.64H167.19a6.63,6.63,0,0,1-6.09-9.23l16.44-38.38a5.82,5.82,0,0,0-10.7-4.58L150.4,374.57A18.27,18.27,0,0,0,167.19,400h6.41v14a24.49,24.49,0,1,0,11.65,0V400H385.16v14a24.49,24.49,0,1,0,11.65,0ZM192.27,437.76a12.85,12.85,0,1,1-12.85-12.84A12.86,12.86,0,0,1,192.27,437.76ZM391,450.61a12.85,12.85,0,1,1,12.85-12.85A12.86,12.86,0,0,1,391,450.61Z"/></svg>