<svg id="Layer_1" data-name="Layer 1" xmlns="http://www.w3.org/2000/svg" viewBox="0 0 250 250"><defs><style>.cls-1{fill:#0b7cbb;}.cls-2{fill:#44b0e0;}.cls-3{fill:#468dc8;}</style></defs><title>T - Shaped</title><polygon class="cls-1" points="104.91 4.28 181.06 14.15 145.34 45.78 68.83 36.41 104.91 4.28"/><polygon class="cls-2" points="11.43 222.1 11.51 164.87 68.84 171.64 68.83 36.41 145.34 45.78 145.32 181.6 202.61 188.46 202.61 245.72 11.43 222.1"/><polygon class="cls-1" points="181.22 149.47 238.47 156.33 202.61 188.46 145.32 181.6 181.22 149.47"/><polygon class="cls-1" points="46.7 132.5 68.83 135.07 68.84 171.64 11.51 164.87 46.7 132.5"/><polygon class="cls-3" points="145.34 45.78 181.06 14.15 181.22 149.47 145.32 181.6 145.34 45.78"/><polygon class="cls-3" points="238.57 215.22 202.61 245.72 202.61 188.46 238.47 156.33 238.57 215.22"/></svg>