<svg id="Layer_1" data-name="Layer 1" xmlns="http://www.w3.org/2000/svg" xmlns:xlink="http://www.w3.org/1999/xlink" viewBox="0 0 1754.64 534.19"><defs><style>.cls-1{fill:#44b0e0;}.cls-2{fill:#448ac6;}.cls-3{fill:#0b7cbb;}.cls-4{fill:#468dc8;}.cls-5{fill:#0e70a9;}</style></defs><title>window-trimmed</title><image width="415" height="415" transform="translate(0 284.19) scale(0.6 0.6)" xlink:href="0000063_bolster-straight-back_415.png"/><polygon class="cls-1" points="326.11 32.34 422.38 44.65 479.83 245.75 326.1 226.41 326.11 32.34"/><polygon class="cls-2" points="458.14 13.08 516.49 213.45 479.93 246 422.38 44.67 458.14 13.08"/><polygon class="cls-3" points="326.11 32.34 362.9 0 458.16 13.06 422.39 44.65 326.11 32.34"/><polygon class="cls-1" points="1302.67 38.89 1398.94 51.19 1456.39 252.29 1302.66 232.96 1302.67 38.89"/><polygon class="cls-2" points="1434.7 19.63 1493.05 220 1456.48 252.54 1398.94 51.21 1434.7 19.63"/><polygon class="cls-3" points="1302.67 38.89 1339.46 6.54 1434.72 19.61 1398.95 51.19 1302.67 38.89"/><image width="415" height="415" transform="translate(0 284.19) scale(0.6)" xlink:href="0000065_equilateral-triangle_415.png"/><polygon class="cls-1" points="646.91 37.85 743.62 243.71 550.73 219.44 646.91 37.85"/><polygon class="cls-4" points="743.62 243.71 780.15 211.47 683.64 4.9 646.91 37.85 743.62 243.71"/><image width="415" height="415" transform="translate(0 284.19) scale(0.6 0.6)" xlink:href="0000067_square-rectangle_415.png"/><polygon class="cls-1" points="797.23 60.21 797.16 224.75 959.94 245.18 959.95 80.84 797.23 60.21"/><polygon class="cls-3" points="797.23 60.21 858.52 6.05 1021.95 26.52 959.95 80.84 797.23 60.21"/><polygon class="cls-4" points="959.95 80.84 959.94 245.18 1022 190.69 1021.95 26.71 959.95 80.84"/><image width="415" height="415" transform="translate(0 284.19) scale(0.6 0.6)" xlink:href="0000070_t-shaped_415.png"/><polygon class="cls-3" points="1133.62 7.51 1209.78 17.38 1174.06 49.02 1097.55 39.64 1133.62 7.51"/><polygon class="cls-1" points="1040.15 225.34 1040.23 168.1 1097.56 174.88 1097.55 39.64 1174.06 49.02 1174.04 184.84 1231.33 191.7 1231.33 248.96 1040.15 225.34"/><polygon class="cls-3" points="1209.94 152.7 1267.18 159.56 1231.33 191.7 1174.04 184.84 1209.94 152.7"/><polygon class="cls-3" points="1075.42 135.73 1097.55 138.31 1097.56 174.88 1040.23 168.1 1075.42 135.73"/><polygon class="cls-4" points="1174.06 49.02 1209.78 17.38 1209.94 152.7 1174.04 184.84 1174.06 49.02"/><polygon class="cls-4" points="1267.29 218.46 1231.33 248.96 1231.33 191.7 1267.18 159.56 1267.29 218.46"/><image width="415" height="415" transform="translate(0.29 284.19) scale(0.6 0.6)" xlink:href="0000073_wedge-foam_415.png"/><image width="415" height="415" transform="translate(0.29 284.19) scale(0.6 0.6)" xlink:href="0000074_window-seat_415.png"/><polygon class="cls-1" points="1576.4 38.45 1529.36 223.73 1718.23 247.27 1671.2 49.92 1576.4 38.45"/><polygon class="cls-3" points="1611.93 6.58 1707.45 18.13 1671.2 49.92 1576.4 38.45 1611.93 6.58"/><polygon class="cls-4" points="1754.64 215.35 1718.23 247.27 1671.2 49.92 1707.45 18.13 1754.64 215.35"/><image width="415" height="415" transform="translate(0 284.19) scale(0.6 0.6)" xlink:href="0000075_window-trimmed_415.png"/><polygon class="cls-4" points="537.11 466.83 506.02 494.18 506.02 428.13 537.09 400.83 537.11 466.83"/><polygon class="cls-1" points="296.86 401.5 296.8 467.6 506.02 494.18 506.02 428.13 442.35 361.36 360.46 351.5 296.86 401.5"/><polygon class="cls-3" points="390.79 324.21 473.41 334.04 442.35 361.36 360.46 351.5 390.79 324.21"/><polygon class="cls-4" points="537.09 400.83 506.02 428.13 442.35 361.36 473.41 334.04 537.09 400.83"/><polygon class="cls-5" points="296.86 401.5 330.1 371.75 390.79 324.21 360.46 351.5 296.86 401.5"/></svg>